<?xml version="1.0" standalone="no"?>
<!DOCTYPE svg PUBLIC "-//W3C//DTD SVG 1.1//EN" "http://www.w3.org/Graphics/SVG/1.1/DTD/svg11.dtd" >
<svg xmlns="http://www.w3.org/2000/svg">
<metadata>Generated by IcoMoon</metadata>
<defs>
<font id="cliqricons" horiz-adv-x="1024">
<font-face units-per-em="1024" ascent="960" descent="-64" />
<missing-glyph horiz-adv-x="1024" />
<glyph unicode="&#x20;" horiz-adv-x="512" d="" />
<glyph unicode="&#xe900;" glyph-name="grip" d="M240 896c-26.44 0-48-21.54-48-48v-160c0-26.46 21.56-48 48-48h160c26.44 0 48 21.54 48 48v160c0 26.46-21.56 48-48 48zM240 576c-26.44 0-48-21.54-48-48v-160c0-26.46 21.56-48 48-48h160c26.44 0 48 21.54 48 48v160c0 26.46-21.56 48-48 48zM240 256c-26.44 0-48-21.54-48-48v-160c0-26.46 21.56-48 48-48h160c26.44 0 48 21.54 48 48v160c0 26.46-21.56 48-48 48zM624 896c-26.44 0-48-21.54-48-48v-160c0-26.46 21.56-48 48-48h160c26.44 0 48 21.54 48 48v160c0 26.46-21.56 48-48 48zM624 576c-26.44 0-48-21.54-48-48v-160c0-26.46 21.56-48 48-48h160c26.44 0 48 21.54 48 48v160c0 26.46-21.56 48-48 48zM624 256c-26.44 0-48-21.54-48-48v-160c0-26.46 21.56-48 48-48h160c26.44 0 48 21.54 48 48v160c0 26.46-21.56 48-48 48z" />
<glyph unicode="&#xe901;" glyph-name="add-files" d="M194 960v-66.875h523.875v66.875zM100.25 826.375v-888.5h382.125v284.25h305.5v289.75c-26.75 0.115-53.501-0.065-80.25-0.125v-195h-306.625v-294.5h-212.875v724.875h387.875v79.25zM855.125 511.875v-209.125h68.625v209.125zM574.75 130v-148.75l161.625 148.75zM1024 818.112h-141.952v141.888h-100.096v-141.888h-141.952v-100.032h141.952v-142.144h100.096v142.144h141.952z" />
<glyph unicode="&#xe902;" glyph-name="add-assessment" d="M65.125 815.25v-230.625h230.625v230.625h-230.625zM99.25 781.125h162.25v-162.25h-162.25v162.25zM386.625 764.75v-136.75h331.375v26.125h-142v110.625h-189.375zM65.125 563.25v-230.625h230.625v146.5l40.125 40.125-40.125 40.25v3.75h-230.625zM99.25 529.25h162.25v-4l-63.25-63.125-51 50.875-40-40 91.125-91.125 63.125 63.125v-78.125h-162.25v162.375zM386.625 515.625v-136.625h572.25v136.625h-572.25zM65.125 311.375v-230.625h230.625v230.625h-230.625zM99.25 277.125h162.25v-162.125h-162.25v162.125zM386.625 265.25v-136.625h572.25v136.625h-572.25zM1024 818.112h-141.952v141.888h-100.096v-141.888h-141.952v-100.032h141.952v-142.144h100.096v142.144h141.952z" />
<glyph unicode="&#xe903;" glyph-name="accept" d="M1024 666.112l-179.648 179.776-436.416-436.48-228.544 228.352-179.392-179.584 408.128-408.064z" />
<glyph unicode="&#xe904;" glyph-name="add" d="M628.416 1.408l-0.256 330.24h330.432l0.128 232.64-330.432 0.064v330.368l-232.512-0.128 0.064-330.24h-330.56l0.064-232.832h330.496l-0.064-330.176z" />
<glyph unicode="&#xe905;" glyph-name="archive3" d="M771.008 178.88c0-27.181-22.035-49.216-49.216-49.216s-49.216 22.035-49.216 49.216c0 27.181 22.035 49.216 49.216 49.216s49.216-22.035 49.216-49.216zM771.008 451.904c0-27.181-22.035-49.216-49.216-49.216s-49.216 22.035-49.216 49.216c0 27.181 22.035 49.216 49.216 49.216s49.216-22.035 49.216-49.216zM130.688 899.328v-894.848h764.096v894.848h-764.096zM822.656 76.672h-619.712v200.832h619.648v-200.832zM822.656 353.344h-619.712v197.248h619.648v-197.248zM202.944 626.368v200.704h619.648v-200.704h-619.648zM771.008 724.928c0-27.181-22.035-49.216-49.216-49.216s-49.216 22.035-49.216 49.216c0 27.181 22.035 49.216 49.216 49.216s49.216-22.035 49.216-49.216z" />
<glyph unicode="&#xe906;" glyph-name="assessment" d="M65.125 815.25v-230.625h230.625v230.625h-230.625zM99.25 781.125h162.25v-162.25h-162.25v162.25zM386.625 764.75v-136.75h572.25v136.75h-572.25zM65.125 563.25v-230.625h230.625v146.5l40.125 40.125-40.125 40.25v3.75h-230.625zM99.25 529.25h162.25v-4l-63.25-63.125-51 50.875-40-40 91.125-91.125 63.125 63.125v-78.125h-162.25v162.375zM386.625 515.625v-136.625h572.25v136.625h-572.25zM65.125 311.375v-230.625h230.625v230.625h-230.625zM99.25 277.125h162.25v-162.125h-162.25v162.125zM386.625 265.25v-136.625h572.25v136.625h-572.25z" />
<glyph unicode="&#xe907;" glyph-name="code" d="M594.176 830.912c-28.032 0-34.944-8-47.040-47.808l-184.256-593.536c-10.752-35.456-17.728-57.856-17.728-70.912 0-34.816 26.112-49.984 46.4-49.984 27.968 0 34.944 8 46.976 47.808l184.192 593.472c10.816 35.52 17.728 57.984 17.728 70.912 0.064 34.88-25.92 50.048-46.272 50.048zM289.472 740.8c1.524 4.184 2.406 9.015 2.406 14.051 0 17.305-10.406 32.179-25.302 38.707l-0.272 0.106c-21.312 8.896-28.544 5.056-47.488-21.44l-181.44-250.816c-8.067-10.81-16.455-23.319-24.234-36.235l-1.174-2.101c-1.478-2.188-2.829-4.693-3.927-7.331l-0.105-0.285c-0.32-0.704-1.216-1.92-1.408-2.496-0.32-1.152-0.064-2.048-0.384-3.136-0.781-2.88-1.23-6.187-1.23-9.599 0-0.36 0.005-0.719 0.015-1.077l-0.001 0.053c0-3.904 0.32-7.36 1.28-10.752 0.256-1.088 0-1.92 0.32-3.008 0.192-0.64 1.088-1.728 1.344-2.432 1.197-2.987 2.594-5.558 4.246-7.938l-0.086 0.13c5.248-9.408 12.992-20.928 25.344-38.272l181.376-250.816c18.944-26.432 26.24-30.4 47.488-21.568 15.168 6.692 25.564 21.6 25.564 38.935 0 5.037-0.878 9.87-2.489 14.353l0.093-0.296c-3.2 9.728-14.016 24.768-30.848 48.384l-168.64 233.28 168.704 233.152c16.832 23.616 27.648 38.592 30.848 48.448zM1023.232 459.2c0.002 0.135 0.002 0.295 0.002 0.454 0 3.658-0.468 7.207-1.347 10.589l0.064-0.292c-0.256 1.088 0 1.92-0.32 3.008-0.192 0.64-1.088 1.728-1.344 2.432-1.244 2.953-2.616 5.478-4.201 7.847l0.105-0.167c-8.855 14.946-17.244 27.457-26.234 39.492l0.826-1.156-181.44 250.816c-18.944 26.496-26.304 30.4-47.488 21.504-15.167-6.634-25.574-21.508-25.574-38.813 0-5.036 0.881-9.867 2.498-14.345l-0.093 0.294c3.2-9.856 14.016-24.896 30.784-48.512l168.768-233.152-168.768-233.28c-16.832-23.552-27.648-38.656-30.784-48.384-1.539-4.206-2.428-9.063-2.428-14.127 0-17.325 10.415-32.218 25.325-38.759l0.272-0.106c21.312-8.832 28.544-4.864 47.488 21.568l181.44 250.816c12.288 17.28 20.032 28.736 25.28 38.208 1.616 2.288 3.036 4.904 4.135 7.681l0.089 0.255c0.256 0.704 1.088 1.728 1.28 2.368 0.32 1.088 0.064 1.856 0.32 2.88 0.86 2.997 1.354 6.439 1.354 9.996 0 0.311-0.004 0.62-0.011 0.929l0.001-0.046z" />
<glyph unicode="&#xe908;" glyph-name="code-qr" d="M450.88 195.456h63.68v-63.68h-63.68zM578.304 68.096h127.36v63.68h-63.68v63.68h-63.68zM641.984 450.304v-63.808h-127.424v63.808h127.424v63.616h-63.68v63.68h-127.424v-63.68h-63.68v-127.424h63.68v-63.68h63.68v-63.68h127.424v63.68h63.68v-63.68h127.36v63.68h-63.68v191.104h-63.68v-63.616zM641.984 259.136h63.68v-63.68h-63.68zM68.8 513.92h63.68v-63.616h-63.68zM196.16 577.6h191.040v127.36h63.68v63.68h-63.68v127.36h-318.4v-318.336h63.68v-63.744h63.68v63.68zM132.48 832.32h191.040v-191.040h-191.040v191.040zM769.344 4.416h63.68v63.68h63.68v63.68h-63.68v63.68h-63.68zM833.024 259.136h63.68v-63.68h-63.68zM896.704 450.304h63.68v-63.808h-63.68zM196.16 195.456h63.68v-63.68h-63.68zM387.2 259.136v63.68h-127.36v63.68h63.68v127.424h-63.68v-63.616h-63.68v-127.488h-127.36v-318.336h318.4v63.616h63.68v63.68h-63.68v127.36zM132.48 68.096v191.040h191.040v-191.040h-191.040zM196.16 768.64h63.68v-63.68h-63.68zM769.344 768.64h63.68v-63.68h-63.68zM896.704 896h-254.72v-63.68h-127.424v-191.040h63.744v127.36h63.68v-254.72h63.68v63.68h254.72v318.4h-63.68zM896.704 641.28h-191.040v191.040h191.040v-191.040z" />
<glyph unicode="&#xe909;" glyph-name="decline" d="M945.792 193.664l-254.464 254.272 254.464 254.528-179.136 179.328-254.592-254.464-254.528 254.464-179.072-179.2 254.464-254.4-254.72-254.656 179.456-179.328 254.656 254.592 254.336-254.464z" />
<glyph unicode="&#xe90a;" glyph-name="edit" d="M382.144 137.664l98.56 37.056-72.512 64.512-26.048-101.568zM686.208 622.592v183.616h-686.272v-866.368h686.272v396.16l228.416 256.704-142.144 126.848-86.272-96.96zM615.552 543.104l-184.192-206.976 142.144-126.912 42.048 47.296v-245.952h-545.152v725.12h545.152v-192.576zM992.128 822.976c-16.763 15.021-39.028 24.205-63.438 24.205-28.017 0-53.208-12.098-70.633-31.356l-50.761-56.978 142.208-127.040 50.944 57.152-0.128 0.064c14.677 16.688 23.634 38.718 23.634 62.84 0 28.218-12.256 53.573-31.736 71.033l-0.090 0.079zM413.184 471.488h-251.072v-70.592h251.072v70.592zM311.232 621.376h-149.12v-70.528h149.12v70.528z" />
<glyph unicode="&#xe90b;" glyph-name="exclaim-circle" d="M511.936 897.728c-247.29-0.037-447.744-200.513-447.744-447.808 0-247.318 200.49-447.808 447.808-447.808 0.023 0 0.045 0 0.068 0h-0.004c247.304 0.018 447.776 200.502 447.776 447.808 0 247.318-200.49 447.808-447.808 447.808-0.011 0-0.023 0-0.034 0h0.002zM511.936 92.672c-197.105 0.291-356.82 159.961-357.184 357.021v0.035c0.182 197.246 159.959 357.112 357.153 357.44h0.031c197.238-0.328 357.030-160.187 357.248-357.419v-0.021c-0.4-197.103-160.13-356.765-357.22-357.056h-0.028zM512.32 311.936c-43.712 0-74.24-31.36-74.24-75.2 0-42.944 29.696-75.008 73.408-75.008h0.832c44.672 0 73.472 32.064 73.472 75.008-0.64 43.84-29.568 75.2-73.472 75.2zM559.424 353.28l18.304 374.080h-131.392l18.944-374.080h94.144z" />
<glyph unicode="&#xe90c;" glyph-name="folder-full" d="M840 608.32v-512h-768v512h768zM904 672.32h-896v-640h896v640zM459.2 768.32l-19.136 95.36h-256l-19.2-95.36h-76.864v-64h864v-608l64 64v608z" />
<glyph unicode="&#xe90d;" glyph-name="folder-parent" d="M296.192 507.968l-79.808-79.872 233.472-233.664 233.728 233.664-79.744 79.872-153.856-153.728zM840 608.32v-512h-768v512h768zM904 672.32h-896v-640h896v640zM459.2 768.32l-19.136 95.36h-256l-19.2-95.36h-76.864v-64h864v-608l64 64v608z" />
<glyph unicode="&#xe90e;" glyph-name="pause" d="M172.736 894.72h262.72v-893.376h-262.72zM588.544 894.72h262.72v-893.376h-262.72z" />
<glyph unicode="&#xe90f;" glyph-name="play" d="M322.112 11.904l436.224 436.288-436.096 435.904z" />
<glyph unicode="&#xe910;" glyph-name="refresh" d="M538.24 566.080l396.032-0.128-0.128 395.84h-135.296l-0.128-172.48c-187.648 144.832-456.064 135.168-626.56-35.2-185.28-185.28-181.248-486.656 5.504-673.92 187.456-186.752 488.64-190.784 674.112-5.76 84.549 84.682 136.834 201.598 136.834 330.726 0 0.527-0.001 1.053-0.003 1.58v-0.082l-134.016-0.128c0.002-0.453 0.003-0.989 0.003-1.525 0-92.089-37.296-175.468-97.607-235.855l0.004 0.004c-131.712-131.2-348.352-130.304-484.608 5.696-136 136.192-136.768 352.96-5.568 484.608 113.6 113.408 290.56 127.616 424.64 41.856l-153.216-0.064v-135.168z" />
<glyph unicode="&#xe911;" glyph-name="stop" d="M126.784 895.040h772.48v-891.52h-772.48z" />
<glyph unicode="&#xe912;" glyph-name="test" d="M629.312 722.624h-138.688l69.376-69.248zM560 558.272l-76.352 76.224v-118.464l76.416-76.416 122.304 122.432v118.592zM682.368 466.944l-122.304-122.304-76.416 76.288v-275.072h198.72zM759.104 543.616v-397.76h198.72v402.304h-194.176zM208.192 412.864h198.784v-267.008h-198.784zM131.84 594.688h-70.528v-595.072l51.328 0.128v-0.128h845.184v70.592h-826.048zM560 558.272l-170.24 170.112-59.2-59.264 229.504-229.504 341.376 341.568-59.2 59.264z" />
<glyph unicode="&#xe913;" glyph-name="trash" d="M624.576 803.968v90.112h-225.216v-90.112h-225.472v-122.688h676.16v122.688h-225.472zM234.304 1.92h553.28v613.248h-553.28v-613.248zM628.736 518.72h65.024v-420.288h-65.024v420.288zM478.336 518.72h65.088v-420.288h-65.088v420.288zM328 518.72h65.024v-420.288h-65.024v420.288z" />
<glyph unicode="&#xe914;" glyph-name="upload2" d="M847.168 624.832l-114.624-114.624-220.608 220.48-220.672-220.48-114.496 114.624 335.36 335.168zM66.624 426.624v-424.704h893.312v424.704h-893.312zM780.672 176.128c-38.209 0-69.184 30.975-69.184 69.184s30.975 69.184 69.184 69.184v0c38.209 0 69.184-30.975 69.184-69.184s-30.975-69.184-69.184-69.184v0z" />
<glyph unicode="&#xe915;" glyph-name="vote" d="M684.288 720.896h-198.144v-574.976h198.144v574.976zM409.792 412.032h-198.272v-266.112h198.272v266.112zM760.768 547.008v-401.152h198.144v401.152h-198.144zM135.36 593.28h-70.272v-593.28l51.136 0.128v-0.128h842.688v70.4h-823.616l0.064 522.88z" />
</font>
</defs>
</svg>
