<?xml version="1.0" encoding="UTF-8" standalone="no"?>
<svg
   xmlns:dc="http://purl.org/dc/elements/1.1/"
   xmlns:cc="http://creativecommons.org/ns#"
   xmlns:rdf="http://www.w3.org/1999/02/22-rdf-syntax-ns#"
   xmlns:svg="http://www.w3.org/2000/svg"
   xmlns="http://www.w3.org/2000/svg"
   width="16"
   height="16"
   viewBox="0 0 16 16"
   shape-rendering="geometricPrecision"
   id="svg2"
   version="1.1">
  <metadata
     id="metadata3352">
    <rdf:RDF>
      <cc:Work
         rdf:about="">
        <dc:format>image/svg+xml</dc:format>
        <dc:type
           rdf:resource="http://purl.org/dc/dcmitype/StillImage" />
        <dc:title></dc:title>
      </cc:Work>
    </rdf:RDF>
  </metadata>
  <defs
     id="defs3350" />
  <path
     id="path3343"
     d="M 1.0175781 2.2617188 L 1.0175781 5.8652344 L 4.6210938 5.8652344 L 4.6210938 2.2617188 L 1.0175781 2.2617188 z M 1.5507812 2.7949219 L 4.0859375 2.7949219 L 4.0859375 5.3300781 L 1.5507812 5.3300781 L 1.5507812 2.7949219 z M 6.0410156 3.0507812 L 6.0410156 5.1875 L 11.21875 5.1875 L 11.21875 4.7792969 L 9 4.7792969 L 9 3.0507812 L 6.0410156 3.0507812 z M 1.0175781 6.1992188 L 1.0175781 9.8027344 L 4.6210938 9.8027344 L 4.6210938 7.5136719 L 5.2480469 6.8867188 L 4.6210938 6.2578125 L 4.6210938 6.1992188 L 1.0175781 6.1992188 z M 1.5507812 6.7304688 L 4.0859375 6.7304688 L 4.0859375 6.7929688 L 3.0976562 7.7792969 L 2.3007812 6.984375 L 1.6757812 7.609375 L 3.0996094 9.0332031 L 4.0859375 8.046875 L 4.0859375 9.2675781 L 1.5507812 9.2675781 L 1.5507812 6.7304688 z M 6.0410156 6.9433594 L 6.0410156 9.078125 L 14.982422 9.078125 L 14.982422 6.9433594 L 6.0410156 6.9433594 z M 1.0175781 10.134766 L 1.0175781 13.738281 L 4.6210938 13.738281 L 4.6210938 10.134766 L 1.0175781 10.134766 z M 1.5507812 10.669922 L 4.0859375 10.669922 L 4.0859375 13.203125 L 1.5507812 13.203125 L 1.5507812 10.669922 z M 6.0410156 10.855469 L 6.0410156 12.990234 L 14.982422 12.990234 L 14.982422 10.855469 L 6.0410156 10.855469 z " />
  <path
     id="path11"
     d="m 16,2.217 -2.218,0 0,-2.217 -1.564,0 0,2.217 -2.218,0 0,1.563 2.218,0 0,2.221 1.564,0 0,-2.221 2.218,0 z"
     style="fill:#cb1800" />
</svg>
