<?xml version="1.0" encoding="UTF-8" standalone="no"?>
<svg
   xmlns:dc="http://purl.org/dc/elements/1.1/"
   xmlns:cc="http://creativecommons.org/ns#"
   xmlns:rdf="http://www.w3.org/1999/02/22-rdf-syntax-ns#"
   xmlns:svg="http://www.w3.org/2000/svg"
   xmlns="http://www.w3.org/2000/svg"
   version="1.1"
   id="svg3484"
   shape-rendering="geometricPrecision"
   viewBox="0 0 16 16"
   height="16"
   width="16">
  <metadata
     id="metadata3500">
    <rdf:RDF>
      <cc:Work
         rdf:about="">
        <dc:format>image/svg+xml</dc:format>
        <dc:type
           rdf:resource="http://purl.org/dc/dcmitype/StillImage" />
        <dc:title></dc:title>
      </cc:Work>
    </rdf:RDF>
  </metadata>
  <defs
     id="defs3498" />
  <path
     id="rect3486"
     d="m 3.03125,0 0,1.0449219 8.185547,0 0,-1.0449219 z m -1.4648438,2.0878906 0,13.8828124 5.9707032,0 0,-4.441406 4.7734376,0 0,-4.5273439 c -0.41797,-0.0018 -0.835956,0.00101 -1.253906,0.00195 l 0,3.0468748 -4.791016,0 0,4.601563 -3.3261719,0 0,-11.3261721 6.0605469,0 0,-1.2382813 z m 11.7949218,4.9140625 0,3.2675779 1.072266,0 0,-3.2675779 z m -4.3808592,5.9667969 0,2.324219 2.5253902,-2.324219 z" />
  <path
     style="fill:#cb1800"
     id="roteskreuz"
     d="m 16,2.217 -2.218,0 0,-2.217 -1.564,0 0,2.217 -2.218,0 0,1.563 2.218,0 0,2.221 1.564,0 0,-2.221 2.218,0 z" />
</svg>
