<?xml version="1.0" encoding="UTF-8" standalone="no"?>
<svg
   xmlns:dc="http://purl.org/dc/elements/1.1/"
   xmlns:cc="http://creativecommons.org/ns#"
   xmlns:rdf="http://www.w3.org/1999/02/22-rdf-syntax-ns#"
   xmlns:svg="http://www.w3.org/2000/svg"
   xmlns="http://www.w3.org/2000/svg"
   version="1.1"
   id="svg2"
   viewBox="0 0 30.599999 31"
   height="8.748889mm"
   width="8.6359997mm">
  <defs
     id="defs4" />
  <metadata
     id="metadata7">
    <rdf:RDF>
      <cc:Work
         rdf:about="">
        <dc:format>image/svg+xml</dc:format>
        <dc:type
           rdf:resource="http://purl.org/dc/dcmitype/StillImage" />
        <dc:title></dc:title>
      </cc:Work>
    </rdf:RDF>
  </metadata>
  <g
     transform="translate(-4.72,-25.953836)"
     id="layer1">
    <g
       id="flowRoot4136"
       style="font-style:normal;font-weight:normal;font-size:40px;line-height:125%;font-family:sans-serif;letter-spacing:0px;word-spacing:0px;fill:#000000;fill-opacity:1;stroke:none;stroke-width:1px;stroke-linecap:butt;stroke-linejoin:miter;stroke-opacity:1">
      <path
         id="path4145"
         style="font-style:normal;font-variant:normal;font-weight:normal;font-stretch:normal;font-family:'AAAABJ+KeyForgeIcons';-inkscape-font-specification:'AAAABJ+KeyForgeIcons'"
         d="m 34.16,49.313836 -11.8,7.64 0.92,-5.96 8.68,-5.96 2.2,4.28 z m -13.72,7.08 -9.88,-3.4 -1.64,-3.44 8.32,-1.4 4,3.52 -0.8,4.72 z m -2.16,-9.96 -4.88,-8.12 5.16,-7.56 2.36,-0.52 7.84,6.6 2.4,6.44 -9.32,6.36 -3.56,-3.2 z m -2.36,-0.08 -7.96,1.28 -1,-2 -1.76,-7.16 6.84,1.32 3.88,6.56 z m 10.92,-19.36 7.48,6.68 1,8.16 -0.76,3.96 -1.16,-2.16 -2.96,-7.8 -0.12,-0.28 -0.28,-0.16 -7.68,-6.48 1.96,-2.36 2.52,0.44 z m -12.04,-0.72 3.4,-0.32 3.76,0.44 -1.8,2.04 -2.76,0.6 -2.6,-2.76 z m -10.08,10.04 0.84,-2.76 5.68,-6.88 1.08,-0.12 3.92,4.12 -4.8,7 -6.72,-1.36 z" />
    </g>
  </g>
</svg>
