<svg width="16" height="16" xmlns="http://www.w3.org/2000/svg" viewBox="0 0 16 16" shape-rendering="geometricPrecision"><path d="M9.284 2.017c-.438 0-.546.125-.735.747L5.67 12.038c-.168.554-.277.904-.277 1.108 0 .544.408.781.725.781.437 0 .546-.125.734-.747L9.73 3.907c.169-.555.277-.906.277-1.108.001-.545-.405-.782-.723-.782zM4.523 3.425a.66.66 0 0 0-.362-.826c-.333-.139-.446-.079-.742.335L.584 6.853a7.29 7.29 0 0 0-.397.599.674.674 0 0 0-.063.119c-.005.011-.019.03-.022.039-.005.018-.001.032-.006.049a.595.595 0 0 0-.019.166c0 .061.005.115.02.168.004.017 0 .03.005.047.003.01.017.027.021.038a.617.617 0 0 0 .065.122c.082.147.203.327.396.598l2.834 3.919c.296.413.41.475.742.337a.663.663 0 0 0 .362-.828c-.05-.152-.219-.387-.482-.756L1.405 7.825l2.636-3.643c.263-.369.432-.603.482-.757zm11.465 4.4a.656.656 0 0 0-.02-.168c-.004-.017 0-.03-.005-.047-.003-.01-.017-.027-.021-.038a.72.72 0 0 0-.064-.12 6.876 6.876 0 0 0-.397-.599l-2.835-3.919c-.296-.414-.411-.475-.742-.336a.66.66 0 0 0-.362.826c.05.154.219.389.481.758l2.637 3.643-2.637 3.645c-.263.368-.432.604-.481.756a.661.661 0 0 0 .362.828c.333.138.446.076.742-.337l2.835-3.919c.192-.27.313-.449.395-.597a.588.588 0 0 0 .066-.124c.004-.011.017-.027.02-.037.005-.017.001-.029.005-.045a.587.587 0 0 0 .021-.17z"/></svg>