<?xml version="1.0" encoding="UTF-8" standalone="no"?>
<svg
   xmlns:dc="http://purl.org/dc/elements/1.1/"
   xmlns:cc="http://creativecommons.org/ns#"
   xmlns:rdf="http://www.w3.org/1999/02/22-rdf-syntax-ns#"
   xmlns:svg="http://www.w3.org/2000/svg"
   xmlns="http://www.w3.org/2000/svg"
   version="1.1"
   id="svg2"
   viewBox="0 0 16 16"
   shape-rendering="geometricPrecision"
   width="16"
   height="16">
  <metadata
     id="metadata20">
    <rdf:RDF>
      <cc:Work
         rdf:about="">
        <dc:format>image/svg+xml</dc:format>
        <dc:type
           rdf:resource="http://purl.org/dc/dcmitype/StillImage" />
        <dc:title></dc:title>
      </cc:Work>
    </rdf:RDF>
  </metadata>
  <defs
     id="defs18" />
  <path
     id="path4"
     d="M 3.75,1 C 3.33687,1 3,1.33656 3,1.75 l 0,2.5 C 3,4.66344 3.33687,5 3.75,5 l 2.5,0 C 6.66312,5 7,4.66344 7,4.25 L 7,1.75 C 7,1.33656 6.66312,1 6.25,1 Z" />
  <path
     id="path6"
     d="M 3.75,6 C 3.33687,6 3,6.33656 3,6.75 l 0,2.5 C 3,9.66344 3.33687,10 3.75,10 l 2.5,0 C 6.66312,10 7,9.66344 7,9.25 L 7,6.75 C 7,6.33656 6.66312,6 6.25,6 Z" />
  <path
     id="path8"
     d="M 3.75,11 C 3.33687,11 3,11.33656 3,11.75 l 0,2.5 C 3,14.66344 3.33687,15 3.75,15 l 2.5,0 C 6.66312,15 7,14.66344 7,14.25 l 0,-2.5 C 7,11.33656 6.66312,11 6.25,11 Z" />
  <path
     id="path10"
     d="M 9.75,1 C 9.33687,1 9,1.33656 9,1.75 l 0,2.5 C 9,4.66344 9.33687,5 9.75,5 l 2.5,0 C 12.66312,5 13,4.66344 13,4.25 l 0,-2.5 C 13,1.33656 12.66312,1 12.25,1 Z" />
  <path
     id="path12"
     d="M 9.75,6 C 9.33687,6 9,6.33656 9,6.75 l 0,2.5 C 9,9.66344 9.33687,10 9.75,10 l 2.5,0 C 12.66312,10 13,9.66344 13,9.25 l 0,-2.5 C 13,6.33656 12.66312,6 12.25,6 Z" />
  <path
     id="path14"
     d="M 9.75,11 C 9.33687,11 9,11.33656 9,11.75 l 0,2.5 C 9,14.66344 9.33687,15 9.75,15 l 2.5,0 C 12.66312,15 13,14.66344 13,14.25 l 0,-2.5 C 13,11.33656 12.66312,11 12.25,11 Z" />
</svg>
